<?xml version="1.0" encoding="UTF-8" standalone="no"?>
<svg
   width="900"
   height="600"
   version="1.1"
   id="svg47"
   sodipodi:docname="meaning_reaction_examples.svg"
   xml:space="preserve"
   inkscape:version="1.4.2 (ebf0e940, 2025-05-08)"
   xmlns:inkscape="http://www.inkscape.org/namespaces/inkscape"
   xmlns:sodipodi="http://sodipodi.sourceforge.net/DTD/sodipodi-0.dtd"
   xmlns="http://www.w3.org/2000/svg"
   xmlns:svg="http://www.w3.org/2000/svg"><defs
     id="defs47" /><sodipodi:namedview
     id="namedview47"
     pagecolor="#ffffff"
     bordercolor="#000000"
     borderopacity="0.25"
     inkscape:showpageshadow="2"
     inkscape:pageopacity="0.0"
     inkscape:pagecheckerboard="0"
     inkscape:deskcolor="#d1d1d1"
     inkscape:zoom="1.4341089"
     inkscape:cx="327.72965"
     inkscape:cy="397.45936"
     inkscape:window-width="1728"
     inkscape:window-height="969"
     inkscape:window-x="0"
     inkscape:window-y="38"
     inkscape:window-maximized="1"
     inkscape:current-layer="g13" /><!-- Background --><!-- Title --><!-- Stimulus Section --><g
     transform="translate(436.49967,108.35069)"
     id="g3"><!-- Stimulus background --><rect
       x="-120"
       y="-20"
       width="240"
       height="60"
       fill="#f0f8f0"
       stroke="#90ee90"
       stroke-width="2"
       rx="10"
       id="rect2" /><!-- Leaf icon --><g
       transform="translate(-80,3)"
       id="g2"><path
         d="M 0,0 Q -15,-10 -25,0 -20,15 0,20 20,15 25,0 15,-10 0,0"
         fill="#4caf50"
         id="path2" /><line
         x1="0"
         y1="0"
         x2="0"
         y2="20"
         stroke="#2e7d32"
         stroke-width="2"
         id="line2" /></g><!-- Stimulus text --><text
       x="-42.100197"
       y="14"
       font-family="Arial, sans-serif"
       font-size="18px"
       font-weight="bold"
       fill="#2e7d32"
       id="text2">Stimulus: A Leaf</text></g><!-- Column dividers --><g
     stroke="#e0e0e0"
     stroke-width="1"
     opacity="0.5"
     id="g5"
     transform="matrix(1,0,0,0.80124515,-13.500329,60.151466)"><line
       x1="225"
       y1="160"
       x2="225"
       y2="520"
       id="line3" /><line
       x1="450"
       y1="160"
       x2="450"
       y2="520"
       id="line4" /><line
       x1="675"
       y1="160"
       x2="675"
       y2="520"
       id="line5" /></g><!-- Column 1: Dog --><text
     x="98.999672"
     y="208.35069"
     text-anchor="middle"
     font-family="Arial, sans-serif"
     font-size="16px"
     font-weight="bold"
     fill="#8b4513"
     id="text5">Dog</text><g
     transform="translate(98.999671,344.35069)"
     id="g13"><!-- Bubble --><ellipse
       cx="0"
       cy="0"
       rx="70"
       ry="30"
       fill="#ffe4b5"
       stroke="#deb887"
       stroke-width="2"
       id="ellipse12" /><!-- Tail --><polygon
       points="-10,45 10,45 0,30 "
       fill="#ffe4b5"
       stroke="#deb887"
       stroke-width="2"
       id="polygon12" /><!-- Text --><text
       x="0"
       y="5"
       text-anchor="middle"
       font-family="Arial, sans-serif"
       font-size="12px"
       font-weight="bold"
       fill="#8b4513"
       id="text12"><tspan
         style="font-style:normal;font-variant:normal;font-weight:normal;font-stretch:normal;font-family:Arial, sans-serif;-inkscape-font-specification:'Arial, sans-serif'"
         id="tspan48">Might pee here.</tspan></text></g><!-- Column 2: Human --><text
     x="323.99966"
     y="208.35069"
     text-anchor="middle"
     font-family="Arial, sans-serif"
     font-size="16px"
     font-weight="bold"
     fill="#4682b4"
     id="text14">Human</text><g
     transform="translate(323.99967,248.35069)"
     id="g18"><!-- Head --><circle
       cx="0"
       cy="0"
       r="15"
       fill="#f4a460"
       stroke="#cd853f"
       stroke-width="2"
       id="circle14" /><!-- Body --><rect
       x="-10"
       y="15"
       width="20"
       height="25"
       fill="#4682b4"
       rx="3"
       id="rect14" /><!-- Arms --><rect
       x="-18"
       y="18"
       width="8"
       height="15"
       fill="#f4a460"
       rx="4"
       id="rect15" /><rect
       x="10"
       y="18"
       width="8"
       height="15"
       fill="#f4a460"
       rx="4"
       id="rect16" /><!-- Legs --><rect
       x="-8"
       y="40"
       width="6"
       height="20"
       fill="#2f4f4f"
       rx="3"
       id="rect17" /><rect
       x="2"
       y="40"
       width="6"
       height="20"
       fill="#2f4f4f"
       rx="3"
       id="rect18" /></g><g
     transform="translate(323.99967,348.35069)"
     id="g19"><!-- Bubble --><rect
       x="-80"
       y="-25"
       width="160"
       height="50"
       fill="#e6f3ff"
       stroke="#4682b4"
       stroke-width="2"
       rx="15"
       id="rect19" /><!-- Tail --><polygon
       points="0,25 -10,40 10,40 "
       fill="#e6f3ff"
       stroke="#4682b4"
       stroke-width="2"
       id="polygon19" /><!-- Text --><text
       x="0"
       y="2.6702683"
       text-anchor="middle"
       font-family="Arial, sans-serif"
       font-size="12px"
       fill="#2f4f4f"
       id="text19">It's a leaf from a tree.</text></g><!-- Column 3: Poet --><g
     transform="translate(548.99967,228.35069)"
     id="g29"><!-- Column header --><text
       x="0"
       y="-20"
       text-anchor="middle"
       font-family="Arial, sans-serif"
       font-size="16px"
       font-weight="bold"
       fill="#8b008b"
       id="text20">Poet</text><!-- Poet icon --><g
       transform="translate(0,20)"
       id="g24"><!-- Head --><circle
         cx="0"
         cy="0"
         r="15"
         fill="#f4a460"
         stroke="#cd853f"
         stroke-width="2"
         id="circle20" /><!-- Beret --><ellipse
         cx="-2"
         cy="-8"
         rx="18"
         ry="8"
         fill="#8b008b"
         id="ellipse20" /><!-- Body --><rect
         x="-10"
         y="15"
         width="20"
         height="25"
         fill="#483d8b"
         rx="3"
         id="rect20" /><!-- Arms --><rect
         x="-18"
         y="18"
         width="8"
         height="15"
         fill="#f4a460"
         rx="4"
         id="rect21" /><rect
         x="10"
         y="18"
         width="8"
         height="15"
         fill="#f4a460"
         rx="4"
         id="rect22" /><!-- Quill --><line
         x1="18"
         y1="25"
         x2="25"
         y2="18"
         stroke="#8b4513"
         stroke-width="2"
         id="line22" /><ellipse
         cx="26"
         cy="16"
         rx="3"
         ry="1"
         fill="#ffd700"
         id="ellipse22" /><!-- Legs --><rect
         x="-8"
         y="40"
         width="6"
         height="20"
         fill="#2f4f4f"
         rx="3"
         id="rect23" /><rect
         x="2"
         y="40"
         width="6"
         height="20"
         fill="#2f4f4f"
         rx="3"
         id="rect24" /></g><!-- Poetic speech bubble --><g
       transform="translate(0,130)"
       id="g28"><!-- Ornate bubble --><path
         d="m -90,-30 q -5,-5 0,-10 H 90 q 5,5 0,10 v 60 q 5,5 0,10 H -90 q -5,-5 0,-10 z"
         fill="#f8e8ff"
         stroke="#8b008b"
         stroke-width="2"
         id="path24" /><!-- Decorative swirls --><path
         d="m -85,-35 q 5,-3 10,0"
         fill="none"
         stroke="#8b008b"
         stroke-width="1"
         id="path25" /><path
         d="m 75,-35 q 5,-3 10,0"
         fill="none"
         stroke="#8b008b"
         stroke-width="1"
         id="path26" /><!-- Tail --><polygon
         points="-12,55 12,55 0,40 "
         fill="#f8e8ff"
         stroke="#8b008b"
         stroke-width="2"
         id="polygon26" /><!-- Text --><text
         x="0"
         y="-10"
         text-anchor="middle"
         font-family="Arial, sans-serif"
         font-size="11px"
         font-style="italic"
         fill="#4b0082"
         id="text26">A whisper of autumn's</text><text
         x="0"
         y="5"
         text-anchor="middle"
         font-family="Arial, sans-serif"
         font-size="11px"
         font-style="italic"
         fill="#4b0082"
         id="text27">breath, dancing in</text><text
         x="0"
         y="20"
         text-anchor="middle"
         font-family="Arial, sans-serif"
         font-size="11px"
         font-style="italic"
         fill="#4b0082"
         id="text28">eternal grace.</text></g></g><!-- Column 4: Psychedelic Mind --><g
     transform="translate(773.99967,228.35069)"
     id="g43"><!-- Column header --><text
       x="0"
       y="-20"
       text-anchor="middle"
       font-family="Arial, sans-serif"
       font-size="16px"
       font-weight="bold"
       fill="#ff1493"
       id="text29">Psychedelic Mind</text><!-- Psychedelic icon --><g
       transform="translate(0,20)"
       id="g35"><!-- Head with fractal patterns --><circle
         cx="0"
         cy="0"
         r="15"
         fill="#ff69b4"
         stroke="#ff1493"
         stroke-width="2"
         id="circle29" /><!-- Swirling patterns --><path
         d="M -10,-5 Q 0,-15 10,-5 0,5 -10,-5"
         fill="none"
         stroke="#00ffff"
         stroke-width="2"
         id="path29" /><path
         d="M -5,10 Q 5,0 -5,-10 -15,0 -5,10"
         fill="none"
         stroke="#ffff00"
         stroke-width="2"
         id="path30" /><circle
         cx="-5"
         cy="-3"
         r="2"
         fill="#00ff00"
         id="circle30" /><circle
         cx="5"
         cy="3"
         r="2"
         fill="#ff4500"
         id="circle31" /><!-- Body --><rect
         x="-10"
         y="15"
         width="20"
         height="25"
         fill="#9400d3"
         rx="3"
         id="rect31" /><!-- Arms with energy --><rect
         x="-18"
         y="18"
         width="8"
         height="15"
         fill="#f4a460"
         rx="4"
         id="rect32" /><rect
         x="10"
         y="18"
         width="8"
         height="15"
         fill="#f4a460"
         rx="4"
         id="rect33" /><!-- Energy radiating --><line
         x1="-22"
         y1="20"
         x2="-28"
         y2="15"
         stroke="#00ffff"
         stroke-width="2"
         id="line33" /><line
         x1="22"
         y1="20"
         x2="28"
         y2="15"
         stroke="#ffff00"
         stroke-width="2"
         id="line34" /><!-- Legs --><rect
         x="-8"
         y="40"
         width="6"
         height="20"
         fill="#2f4f4f"
         rx="3"
         id="rect34" /><rect
         x="2"
         y="40"
         width="6"
         height="20"
         fill="#2f4f4f"
         rx="3"
         id="rect35" /></g><!-- Psychedelic speech bubble --><g
       transform="translate(0,140)"
       id="g42"><!-- Wavy, fractal bubble --><path
         d="m -95,-35 q -5,-10 10,-10 10,-5 20,0 10,5 20,0 10,-5 20,0 10,5 20,0 10,-5 20,0 10,5 20,0 10,-5 20,0 10,5 20,0 10,-5 20,0 5,10 0,20 -5,10 0,20 5,10 0,20 -5,10 0,20 Q 85,50 75,45 65,40 55,45 45,50 35,45 25,40 15,45 5,50 -5,45 q -10,-5 -20,0 -10,5 -20,0 -10,-5 -20,0 -10,5 -20,0 -15,-10 -10,-20 5,-10 0,-20 -5,-10 0,-20 5,-10 0,-20 z"
         fill="#ffe4ff"
         stroke="#ff1493"
         stroke-width="2"
         id="path35" /><!-- Fractal decorations --><circle
         cx="-70"
         cy="-20"
         r="3"
         fill="#00ffff"
         opacity="0.7"
         id="circle35" /><circle
         cx="70"
         cy="20"
         r="3"
         fill="#ffff00"
         opacity="0.7"
         id="circle36" /><circle
         cx="-30"
         cy="15"
         r="2"
         fill="#00ff00"
         opacity="0.7"
         id="circle37" /><circle
         cx="30"
         cy="-15"
         r="2"
         fill="#ff4500"
         opacity="0.7"
         id="circle38" /><!-- Tail --><polygon
         points="-15,65 15,65 0,45 "
         fill="#ffe4ff"
         stroke="#ff1493"
         stroke-width="2"
         id="polygon38" /><!-- Text --><text
         x="0"
         y="-20"
         text-anchor="middle"
         font-family="Arial, sans-serif"
         font-size="9px"
         fill="#8b008b"
         id="text38">The universe unfolding</text><text
         x="0"
         y="-8"
         text-anchor="middle"
         font-family="Arial, sans-serif"
         font-size="9px"
         fill="#8b008b"
         id="text39">through fractal green</text><text
         x="0"
         y="4"
         text-anchor="middle"
         font-family="Arial, sans-serif"
         font-size="9px"
         fill="#8b008b"
         id="text40">geometry, each vein a</text><text
         x="0"
         y="16"
         text-anchor="middle"
         font-family="Arial, sans-serif"
         font-size="9px"
         fill="#8b008b"
         id="text41">portal to infinite</text><text
         x="0"
         y="28"
         text-anchor="middle"
         font-family="Arial, sans-serif"
         font-size="9px"
         fill="#8b008b"
         id="text42">dimensions of being.</text></g></g><!-- Bottom caption --><g
     transform="translate(436.49967,515.44891)"
     id="g44"><text
       x="0"
       y="0"
       text-anchor="middle"
       font-family="Arial, sans-serif"
       font-size="16px"
       font-style="italic"
       fill="#666666"
       id="text43">Same input. Four minds. Four worlds of meaning.</text></g><!-- Decorative elements --><g
     id="g48"
     transform="matrix(0.0755936,0,0,0.06529404,61.015609,222.32716)"><path
       d="m 959.5,943.3629 h 0.2 c 0,31 -25.2,56.2 -56.2,56.2 h -38.3 c -14.3,0 -27.8,-6.2 -37.1,-17.1 -0.7,-0.8 -1.3,-1.6 -2,-2.5 H 799 c -14.3,0 -27.8,-6.2 -37.1,-17.1 -9.3,-10.9 -13.3,-25.3 -11,-39.5 3.4,-21.6 21.8,-38.3 43.7,-40.6 l -0.1,-38.2 -104.2,-130.6 -201,26.3 c 0,47.8 -0.1,147.5 -0.1,147.5 v 36 c 0,31 -25.2,56.2 -56.2,56.2 h -13.3 c -10.3,11.9 -25.5,19.5 -42.5,19.5 H 339 c -14.3,0 -27.8,-6.3 -37.1,-17.1 -9.3,-10.9 -13.3,-25.3 -11,-39.5 3.4,-21.6 21.8,-38.3 43.7,-40.6 v -166 c -42.6,-19.1 -75.4,-55.3 -90.9,-101.1 -0.1,-0.4 -59.3,-189.8 -59.3,-189.8 -67,-5.7 -119.7,-62 -119.7,-130.4 0,-10 8.1,-18.1 18.1,-18.1 h 85 l 55.9,-45.3 c 0.7,-7 2.6,-14 5.9,-20.9 10.4,-22.2 32.1,-37.1 56.5,-38.7 5.6,-0.4 11,2.2 14.3,6.8 1.9,2.6 3.6,5.4 5.1,8.3 8.4,-3.6 17.5,-5.6 26.8,-5.6 6.3,0 12.1,3.1 15.4,8.4 13.4,21.2 14.3,48.1 2.2,70.2 -1,1.8 -2,3.5 -3.1,5.2 l 103.9,129.7 c 0,0 392.2,63 393.3,63.2 7.4,1.3 14.6,-1.8 18.2,-7.8 37.1,-61.7 46.6,-121.3 46.4,-144.1 -0.1,-9.7 7.5,-17.7 17.2,-18.3 9.6,-0.5 18.1,6.7 19,16.3 0.5,5.2 12.2,127.3 -15.6,198.7 -5.5,14.1 -7.8,28.3 -6.9,42.4 0.1,2 0.2,168.3 0.2,168.3 l 35.8,84.9 c 0.9,2.2 1.4,4.6 1.4,7 0.1,0 0,116.9 -0.2,117.8 z"
       fill="#663333"
       id="path1"
       style="fill:#000000;fill-opacity:1;stroke:#1e3e35;stroke-opacity:1" /><path
       d="m 923.7,943.3629 h -0.2 c 0,11 -9,20 -20,20 h -38.3 c -3.7,0 -7.1,-1.6 -9.5,-4.4 -1.4,-1.7 -3.6,-5.2 -2.8,-10.3 0.9,-5.9 6.6,-10.4 13.2,-10.4 l 13.1,-0.2 c 9.9,-0.2 17.8,-8.2 17.8,-18.1 v -71.4 -0.3 c -0.1,-3.7 -1.3,-7.5 -3.7,-10.7 l -98,-128.1 c 0,-0.1 -0.1,-0.1 -0.1,-0.2 -20,-25.5 -52.5,-38.7 -84.6,-34.5 l -297.5,39 c -9.1,1.2 -15.8,9 -15.8,18 0,32.4 -0.1,173.5 -0.1,175.6 v 36 c 0,11 -9,20 -20,20 H 339 c -3.7,0 -7.2,-1.6 -9.5,-4.4 -1.4,-1.7 -3.6,-5.2 -2.8,-10.3 0.9,-5.9 6.6,-10.4 13.2,-10.4 l 13.1,-0.2 c 9.9,-0.2 17.8,-8.2 17.8,-18.1 v -196 c 0,-7.9 -5,-14.6 -12,-17.1 -38.2,-13.6 -67.7,-44.3 -81,-84.2 -0.1,-0.2 -0.1,-0.4 -0.2,-0.5 l -62.4,-199.9 c -2.4,-7.6 -9.4,-12.7 -17.3,-12.7 h -2.4 c -45.9,0 -84.3,-32.9 -92.7,-76.4 h 71.6 c 4.2,0 8.2,-1.4 11.4,-4 l 62.1,-50.3 h 21.8 c 14.6,0.8 28.3,-8 33.6,-21.8 0.5,-1.3 0.8,-1.9 0.8,-1.9 3.9,-7.2 10.2,-12.5 17.6,-15.3 1.7,7.7 0.6,15.9 -3.2,23 -0.8,1.4 -1.6,2.6 -2.4,3.8 -8.6,11.7 -8.2,27.7 0.9,39.1 l 110.1,137.5 c 2.8,3.5 6.8,5.9 11.3,6.6 0,0 399.1,64.1 399.8,64.2 22.2,3.8 44,-6 55.4,-24.9 4.9,-8.1 9.3,-16 13.3,-23.8 -2.4,16.2 -6,31.5 -11.1,44.6 -7.4,19 -10.5,38.4 -9.3,57.7 0.1,1.2 0.1,169.7 0.1,169.7 0,2.4 0.5,4.8 1.4,7 l 35.8,84.9 c -0.3,0 -0.2,113.2 -0.1,114.1 z"
       fill="#b88d5b"
       id="path2-2"
       style="fill:#f2bb3f;fill-opacity:1;stroke:#163346;stroke-opacity:1" /><path
       d="m 860.8,854.6629 v 47.6 c -22,2.4 -40.3,19 -43.7,40.6 0,0.3 -0.1,0.5 -0.1,0.8 h -17.9 c -3.7,0 -7.1,-1.6 -9.5,-4.4 -1.4,-1.7 -3.6,-5.2 -2.8,-10.3 0.9,-5.9 6.6,-10.4 13.2,-10.4 l 13.1,-0.2 c 9.9,-0.2 17.8,-8.2 17.8,-18.1 l -0.1,-62.1 c 0,-4.1 -1.4,-8 -3.9,-11.2 l -92,-115.3 c 12.3,2.8 23.6,9.7 31.7,19.9 z m -427.3,-107.1 19.6,-2.6 c 0,49.6 -0.1,142.8 -0.1,142.8 v 36 c 0,10.9 -8.7,19.7 -19.6,19.9 v -36.4 -61.6 c 0.1,-33.8 0.1,-73.7 0.1,-98.1 z"
       fill="#b88d5b"
       id="path3"
       style="fill:#f2bb3f;fill-opacity:1" /><path
       d="m 387.1,627.5629 c 9.4,3.4 14.3,13.7 11,23.2 -2.6,7.4 -9.6,12 -17.1,12 -2,0 -4.1,-0.3 -6.1,-1.1 -24.3,-8.7 -43.1,-28.4 -51.7,-54.2 l -0.1,-0.2 c 0,-0.1 -0.1,-0.2 -0.1,-0.3 l -16.6,-53.2 c -3,-9.6 2.3,-19.7 11.9,-22.7 9.6,-3 19.7,2.3 22.7,11.9 l 16.6,53.1 c 5.1,15.2 15.8,26.7 29.5,31.5 z"
       fill="#663333"
       id="path4"
       style="fill:#000000;fill-opacity:1" /><path
       d="m 278.5,226.7629 0.3,0.9 c -2.5,3.2 -4.8,6.6 -6.8,10.2 -0.8,1.4 -1.5,3 -2.2,4.7 h -9.6 c 4.1,-7.4 10.6,-13 18.3,-15.8 z"
       fill="#b88d5b"
       id="path5" /><path
       d="m 219.8,321.0629 c 9.9,0 17.9,8 17.9,17.9 0,9.9 -8,17.9 -17.9,17.9 -9.9,0 -17.9,-8 -17.9,-17.9 0,-9.9 8,-17.9 17.9,-17.9 z"
       fill="#663333"
       id="path6"
       style="fill:#010101;fill-opacity:1" /></g></svg>
